<svg version="1.0" xmlns="http://www.w3.org/2000/svg"
 width="304.000000pt" height="304.000000pt" viewBox="0 0 304.000000 304.000000"
 preserveAspectRatio="xMidYMid meet">
<g transform="translate(0.000000,304.000000) scale(0.100000,-0.100000)"
fill="#da291c" stroke="none">
<path d="M1345 3029 c-259 -31 -530 -139 -735 -292 -143 -106 -300 -281 -394
-440 -283 -474 -283 -1080 0 -1554 462 -776 1492 -977 2217 -432 483 362 704
982 560 1569 -140 573 -608 1018 -1190 1130 -125 24 -342 33 -458 19z m420
-1109 c539 -181 993 -334 1009 -340 l30 -11 -374 -374 -375 -375 -737 0 c-406
0 -738 3 -738 8 0 4 33 40 73 80 l74 73 619 30 619 29 25 25 25 25 -590 0
-590 0 55 55 55 55 619 29 619 30 26 25 26 26 -588 0 c-323 0 -587 4 -587 9 0
4 24 31 54 60 53 49 57 51 113 52 32 0 311 12 620 27 552 27 563 27 585 50
l22 22 -604 1 -605 0 -330 386 c-181 212 -331 389 -333 394 -2 4 43 -8 100
-28 57 -19 544 -183 1083 -363z"/>
</g>
</svg>